<?xml version="1.0" encoding="UTF-8" standalone="no"?>
<svg
   xmlns:dc="http://purl.org/dc/elements/1.1/"
   xmlns:cc="http://creativecommons.org/ns#"
   xmlns:rdf="http://www.w3.org/1999/02/22-rdf-syntax-ns#"
   xmlns:svg="http://www.w3.org/2000/svg"
   xmlns="http://www.w3.org/2000/svg"
   xmlns:sodipodi="http://sodipodi.sourceforge.net/DTD/sodipodi-0.dtd"
   xmlns:inkscape="http://www.inkscape.org/namespaces/inkscape"
   viewBox="0 0 800 800"
   height="800"
   width="800"
   xml:space="preserve"
   id="svg2"
   version="1.1"
   sodipodi:docname="interior-room-publicdomain.svg"
   inkscape:version="0.92.4 (5da689c313, 2019-01-14)"><sodipodi:namedview
     pagecolor="#ffffff"
     bordercolor="#666666"
     borderopacity="1"
     objecttolerance="10"
     gridtolerance="10"
     guidetolerance="10"
     inkscape:pageopacity="0"
     inkscape:pageshadow="2"
     inkscape:window-width="1920"
     inkscape:window-height="1017"
     id="namedview174"
     showgrid="false"
     inkscape:zoom="0.97260409"
     inkscape:cx="400"
     inkscape:cy="189.35638"
     inkscape:window-x="-8"
     inkscape:window-y="-8"
     inkscape:window-maximized="1"
     inkscape:current-layer="svg2" /><metadata
     id="metadata8"><rdf:RDF><cc:Work
         rdf:about=""><dc:format>image/svg+xml</dc:format><dc:type
           rdf:resource="http://purl.org/dc/dcmitype/StillImage" /></cc:Work></rdf:RDF></metadata><defs
     id="defs6" /><path
     id="path14"
     style="fill:#af7a44;fill-opacity:1;fill-rule:evenodd;stroke:none;stroke-width:0.13333333"
     d="M 0.00208333,800 H 800.00131 V 0.00135333 H 0.00208333 V 800"
     inkscape:connector-curvature="0" /><path
     id="path16"
     style="fill:#bb874f;fill-opacity:1;fill-rule:evenodd;stroke:none;stroke-width:0.13333333"
     d="M 372.37999,520.01467 322.31599,800 H 487.53732 L 427.62399,520.01467 h -55.244"
     inkscape:connector-curvature="0" /><path
     id="path18"
     style="fill:#b07c45;fill-opacity:1;fill-rule:evenodd;stroke:none;stroke-width:0.13333333"
     d="m 372.37999,520.01467 -3.352,18.74267 h 62.608 l -4.012,-18.74267 h -55.244"
     inkscape:connector-curvature="0" /><path
     id="path20"
     style="fill:#af7a44;fill-opacity:1;fill-rule:evenodd;stroke:none;stroke-width:0.13333333"
     d="M 487.53732,800 H 605.45465 L 481.07599,520.01467 h -53.452 L 487.53732,800"
     inkscape:connector-curvature="0" /><path
     id="path22"
     style="fill:#a7713a;fill-opacity:1;fill-rule:evenodd;stroke:none;stroke-width:0.13333333"
     d="m 489.40132,538.75734 -8.32533,-18.74267 h -53.452 l 4.012,18.74267 h 57.76533"
     inkscape:connector-curvature="0" /><path
     id="path24"
     style="fill:#9e6d3b;fill-opacity:1;fill-rule:evenodd;stroke:none;stroke-width:0.13333333"
     d="M 605.45465,800 H 730.36798 L 534.52799,520.01467 h -53.452 L 605.45465,800"
     inkscape:connector-curvature="0" /><path
     id="path26"
     style="fill:#8f5d2f;fill-opacity:1;fill-rule:evenodd;stroke:none;stroke-width:0.13333333"
     d="m 547.63732,538.75734 -13.10933,-18.74267 h -53.452 l 8.32533,18.74267 h 58.236"
     inkscape:connector-curvature="0" /><path
     id="path28"
     style="fill:#bb874f;fill-opacity:1;fill-rule:evenodd;stroke:none;stroke-width:0.13333333"
     d="M 534.52799,520.01467 730.36798,800 h 69.63333 V 742.09587 L 587.97999,520.01467 h -53.452"
     inkscape:connector-curvature="0" /><path
     id="path30"
     style="fill:#b07c45;fill-opacity:1;fill-rule:evenodd;stroke:none;stroke-width:0.13333333"
     d="m 534.52799,520.01467 13.10933,18.74267 h 58.236 l -17.89333,-18.74267 h -53.452"
     inkscape:connector-curvature="0" /><path
     id="path32"
     style="fill:#c6935a;fill-opacity:1;fill-rule:evenodd;stroke:none;stroke-width:0.13333333"
     d="m 587.97999,520.01467 212.02132,222.0812 V 651.06934 L 641.43332,520.01467 h -53.45333"
     inkscape:connector-curvature="0" /><path
     id="path34"
     style="fill:#bc854b;fill-opacity:1;fill-rule:evenodd;stroke:none;stroke-width:0.13333333"
     d="m 587.97999,520.01467 17.89333,18.74267 h 58.23733 l -22.67733,-18.74267 h -53.45333"
     inkscape:connector-curvature="0" /><path
     id="path36"
     style="fill:#b47f49;fill-opacity:1;fill-rule:evenodd;stroke:none;stroke-width:0.13333333"
     d="m 800.00131,591.75867 -105.11733,-71.744 h -53.45066 l 158.56799,131.05467 v -59.31067"
     inkscape:connector-curvature="0" /><path
     id="path38"
     style="fill:#a7713a;fill-opacity:1;fill-rule:evenodd;stroke:none;stroke-width:0.13333333"
     d="m 722.34532,538.75734 -27.46134,-18.74267 h -53.45066 l 22.67733,18.74267 h 58.23467"
     inkscape:connector-curvature="0" /><path
     id="path40"
     style="fill:#cc9a62;fill-opacity:1;fill-rule:evenodd;stroke:none;stroke-width:0.13333333"
     d="m 800.00131,550.04401 -51.664,-30.02934 h -53.45333 l 105.11733,71.744 v -41.71466"
     inkscape:connector-curvature="0" /><path
     id="path42"
     style="fill:#bc854b;fill-opacity:1;fill-rule:evenodd;stroke:none;stroke-width:0.13333333"
     d="m 780.58265,538.75734 -32.24534,-18.74267 h -53.45333 l 27.46134,18.74267 h 58.23733"
     inkscape:connector-curvature="0" /><path
     id="path44"
     style="fill:#9e6936;fill-opacity:1;fill-rule:evenodd;stroke:none;stroke-width:0.13333333"
     d="m 800.00131,520.01467 h -51.664 l 51.664,30.02934 z"
     inkscape:connector-curvature="0" /><path
     id="path46"
     style="fill:#8f5d2f;fill-opacity:1;fill-rule:evenodd;stroke:none;stroke-width:0.13333333"
     d="m 800.00131,520.01467 h -51.664 l 32.24534,18.74267 h 19.41866 v -18.74267"
     inkscape:connector-curvature="0" /><path
     id="path48"
     style="fill:#c6935a;fill-opacity:1;fill-rule:evenodd;stroke:none;stroke-width:0.13333333"
     d="M 322.31599,800 H 194.54666 L 318.92399,520.01467 h 53.456 L 322.31599,800"
     inkscape:connector-curvature="0" /><path
     id="path50"
     style="fill:#bc854b;fill-opacity:1;fill-rule:evenodd;stroke:none;stroke-width:0.13333333"
     d="m 310.59866,538.75734 8.32533,-18.74267 h 53.456 l -3.352,18.74267 h -58.42933"
     inkscape:connector-curvature="0" /><path
     id="path52"
     style="fill:#b47f49;fill-opacity:1;fill-rule:evenodd;stroke:none;stroke-width:0.13333333"
     d="M 194.54666,800 H 69.634398 L 265.47199,520.01467 h 53.452 L 194.54666,800"
     inkscape:connector-curvature="0" /><path
     id="path54"
     style="fill:#a7713a;fill-opacity:1;fill-rule:evenodd;stroke:none;stroke-width:0.13333333"
     d="m 252.36266,538.75734 13.10933,-18.74267 h 53.452 l -8.32533,18.74267 h -58.236"
     inkscape:connector-curvature="0" /><path
     id="path56"
     style="fill:#9e6d3b;fill-opacity:1;fill-rule:evenodd;stroke:none;stroke-width:0.13333333"
     d="M 265.47199,520.01467 69.634398,800 H 0.00208333 V 742.09587 L 212.01999,520.01467 h 53.452"
     inkscape:connector-curvature="0" /><path
     id="path58"
     style="fill:#8f5d2f;fill-opacity:1;fill-rule:evenodd;stroke:none;stroke-width:0.13333333"
     d="m 265.47199,520.01467 -13.10933,18.74267 H 194.128 l 17.89199,-18.74267 h 53.452"
     inkscape:connector-curvature="0" /><path
     id="path60"
     style="fill:#af7a44;fill-opacity:1;fill-rule:evenodd;stroke:none;stroke-width:0.13333333"
     d="M 212.01999,520.01467 0.00208333,742.09587 V 651.06934 L 158.56666,520.01467 h 53.45333"
     inkscape:connector-curvature="0" /><path
     id="path62"
     style="fill:#a16831;fill-opacity:1;fill-rule:evenodd;stroke:none;stroke-width:0.13333333"
     d="M 212.01999,520.01467 194.128,538.75734 h -58.236 l 22.67466,-18.74267 h 53.45333"
     inkscape:connector-curvature="0" /><path
     id="path64"
     style="fill:#cc9a62;fill-opacity:1;fill-rule:evenodd;stroke:none;stroke-width:0.13333333"
     d="M 0.00208333,591.75867 105.11453,520.01467 h 53.45213 L 0.00208333,651.06934 v -59.31067"
     inkscape:connector-curvature="0" /><path
     id="path66"
     style="fill:#bb8850;fill-opacity:1;fill-rule:evenodd;stroke:none;stroke-width:0.13333333"
     d="m 77.655731,538.75734 27.458799,-18.74267 h 53.45213 L 135.892,538.75734 H 77.655731"
     inkscape:connector-curvature="0" /><path
     id="path68"
     style="fill:#9e6936;fill-opacity:1;fill-rule:evenodd;stroke:none;stroke-width:0.13333333"
     d="M 0.00208333,550.04401 51.661999,520.01467 h 53.452531 l -105.11244667,71.744 v -41.71466"
     inkscape:connector-curvature="0" /><path
     id="path70"
     style="fill:#8f5928;fill-opacity:1;fill-rule:evenodd;stroke:none;stroke-width:0.13333333"
     d="M 19.419733,538.75734 51.661999,520.01467 H 105.11453 L 77.655731,538.75734 H 19.419733"
     inkscape:connector-curvature="0" /><path
     id="path72"
     style="fill:#bb874f;fill-opacity:1;fill-rule:evenodd;stroke:none;stroke-width:0.13333333"
     d="M 0.00208333,520.01467 H 51.661999 L 0.00208333,550.04401 Z"
     inkscape:connector-curvature="0" /><path
     id="path74"
     style="fill:#af7942;fill-opacity:1;fill-rule:evenodd;stroke:none;stroke-width:0.13333333"
     d="M 0.00208333,520.01467 H 51.661999 L 19.419733,538.75734 H 0.00208333 v -18.74267"
     inkscape:connector-curvature="0" /><path
     id="path76"
     style="fill:#603516;fill-opacity:1;fill-rule:evenodd;stroke:none;stroke-width:0.13333333"
     d="M 0,520.01467 H 800.00131 V 0.00135333 H 0 V 520.01467"
     inkscape:connector-curvature="0" /><path
     id="path78"
     style="fill:#77481f;fill-opacity:1;fill-rule:evenodd;stroke:none;stroke-width:0.13333333"
     d="m 158.35866,71.112018 c 32.71867,0 65.43333,0 98.15333,0 0,8.952 0,17.908 0,26.861333 -32.72,0 -65.43466,0 -98.15333,0 0,-8.953333 0,-17.909333 0,-26.861333"
     inkscape:connector-curvature="0" /><path
     id="path80"
     style="fill:#77481f;fill-opacity:1;fill-rule:evenodd;stroke:none;stroke-width:0.13333333"
     d="m 262.90399,71.112018 c 32.71867,0 65.43467,0 98.15333,0 0,8.952 0,17.908 0,26.861333 -32.71866,0 -65.43466,0 -98.15333,0 0,-8.953333 0,-17.909333 0,-26.861333"
     inkscape:connector-curvature="0" /><path
     id="path82"
     style="fill:#77481f;fill-opacity:1;fill-rule:evenodd;stroke:none;stroke-width:0.13333333"
     d="m 367.44932,71.112018 c 32.72,0 65.43467,0 98.15467,0 0,8.952 0,17.908 0,26.861333 -32.72,0 -65.43467,0 -98.15467,0 0,-8.953333 0,-17.909333 0,-26.861333"
     inkscape:connector-curvature="0" /><path
     id="path84"
     style="fill:#77481f;fill-opacity:1;fill-rule:evenodd;stroke:none;stroke-width:0.13333333"
     d="m 471.99599,71.112018 c 32.71866,0 65.43733,0 98.15333,0 0,8.952 0,17.908 0,26.861333 -32.716,0 -65.43467,0 -98.15333,0 0,-8.953333 0,-17.909333 0,-26.861333"
     inkscape:connector-curvature="0" /><path
     id="path86"
     style="fill:#77481f;fill-opacity:1;fill-rule:evenodd;stroke:none;stroke-width:0.13333333"
     d="m 576.54265,71.112018 c 32.71867,0 65.43467,0 98.15333,0 0,8.952 0,17.908 0,26.861333 -32.71866,0 -65.43466,0 -98.15333,0 0,-8.953333 0,-17.909333 0,-26.861333"
     inkscape:connector-curvature="0" /><path
     id="path88"
     style="fill:#77481f;fill-opacity:1;fill-rule:evenodd;stroke:none;stroke-width:0.13333333"
     d="m 681.08665,71.112018 c 32.71733,0 65.436,0 98.15733,0 0,8.952 0,17.908 0,26.861333 -32.72133,0 -65.44,0 -98.15733,0 0,-8.953333 0,-17.909333 0,-26.861333"
     inkscape:connector-curvature="0" /><path
     id="path90"
     style="fill:#77481f;fill-opacity:1;fill-rule:evenodd;stroke:none;stroke-width:0.13333333"
     d="m 1.1859373,102.88135 c 32.7176617,0 65.4348607,0 98.1525937,0 0,8.95467 0,17.908 0,26.864 -32.717733,0 -65.434932,0 -98.1525937,0 0,-8.956 0,-17.90933 0,-26.864"
     inkscape:connector-curvature="0" /><path
     id="path92"
     style="fill:#77481f;fill-opacity:1;fill-rule:evenodd;stroke:none;stroke-width:0.13333333"
     d="m 105.73066,102.88135 c 32.71734,0 65.436,0 98.15333,0 0,8.95467 0,17.908 0,26.864 -32.71733,0 -65.43599,0 -98.15333,0 0,-8.956 0,-17.90933 0,-26.864"
     inkscape:connector-curvature="0" /><path
     id="path94"
     style="fill:#77481f;fill-opacity:1;fill-rule:evenodd;stroke:none;stroke-width:0.13333333"
     d="m 210.27866,102.88135 c 32.71867,0 65.43467,0 98.15067,0 0,8.95467 0,17.908 0,26.864 -32.716,0 -65.432,0 -98.15067,0 0,-8.956 0,-17.90933 0,-26.864"
     inkscape:connector-curvature="0" /><path
     id="path96"
     style="fill:#865427;fill-opacity:1;fill-rule:evenodd;stroke:none;stroke-width:0.13333333"
     d="m 1.1859373,295.33335 c 32.7176617,0 65.4348607,0 98.1525937,0 0,8.95333 0,17.90666 0,26.86 -32.717733,0 -65.434932,0 -98.1525937,0 0,-8.95334 0,-17.90667 0,-26.86 z M 210.27866,487.78001 c 32.71867,0 65.43467,0 98.15067,0 0,8.95866 0,17.912 0,26.86533 -32.716,0 -65.432,0 -98.15067,0 0,-8.95333 0,-17.90667 0,-26.86533 z m 209.088,0 c 32.72,0 65.43866,0 98.15466,0 0,8.95866 0,17.912 0,26.86533 -32.716,0 -65.43466,0 -98.15466,0 0,-8.95333 0,-17.90667 0,-26.86533 z m 261.71999,-95.91867 c 32.71733,0 65.436,0 98.15733,0 0,8.956 0,17.91067 0,26.86267 -32.72133,0 -65.44,0 -98.15733,0 0,-8.952 0,-17.90667 0,-26.86267 z m -104.544,-128.29999 c 32.71867,0 65.43467,0 98.15333,0 0,8.95466 0,17.90933 0,26.864 -32.71866,0 -65.43466,0 -98.15333,0 0,-8.95467 0,-17.90934 0,-26.864 z M 367.44932,391.86134 c 32.72,0 65.43467,0 98.15467,0 0,8.956 0,17.91067 0,26.86267 -32.72,0 -65.43467,0 -98.15467,0 0,-8.952 0,-17.90667 0,-26.86267 z M 210.27866,295.33335 c 32.71867,0 65.43467,0 98.15067,0 0,8.95333 0,17.90666 0,26.86 -32.716,0 -65.432,0 -98.15067,0 0,-8.95334 0,-17.90667 0,-26.86 z m 209.088,-128.30133 c 32.72,0 65.43866,0 98.15466,0 0,8.95466 0,17.90933 0,26.864 -32.716,0 -65.43466,0 -98.15466,0 0,-8.95467 0,-17.90934 0,-26.864 z M 314.82133,102.88135 c 32.71866,0 65.43733,0 98.15333,0 0,8.95467 0,17.908 0,26.864 -32.716,0 -65.43467,0 -98.15333,0 0,-8.956 0,-17.90933 0,-26.864 v 0"
     inkscape:connector-curvature="0" /><path
     id="path98"
     style="fill:#77481f;fill-opacity:1;fill-rule:evenodd;stroke:none;stroke-width:0.13333333"
     d="m 419.36666,102.88135 c 32.72,0 65.43866,0 98.15466,0 0,8.95467 0,17.908 0,26.864 -32.716,0 -65.43466,0 -98.15466,0 0,-8.956 0,-17.90933 0,-26.864"
     inkscape:connector-curvature="0" /><path
     id="path100"
     style="fill:#a3672c;fill-opacity:1;fill-rule:evenodd;stroke:none;stroke-width:0.13333333"
     d="m 158.35866,135.26135 c 32.71867,0 65.43333,0 98.15333,0 0,8.95467 0,17.90933 0,26.86267 -32.72,0 -65.43466,0 -98.15333,0 0,-8.95334 0,-17.908 0,-26.86267 z M 523.91332,38.732019 c 32.71867,0 65.43467,0 98.15333,0 0,8.953333 0,17.909333 0,26.862666 -32.71866,0 -65.43466,0 -98.15333,0 0,-8.953333 0,-17.909333 0,-26.862666 z M 262.90399,6.9600198 c 32.71867,0 65.43467,0 98.15333,0 0,8.9560002 0,17.9093332 0,26.8639992 -32.71866,0 -65.43466,0 -98.15333,0 0,-8.954666 0,-17.907999 0,-26.8639992 z M 105.73066,38.732019 c 32.71734,0 65.436,0 98.15333,0 0,8.953333 0,17.909333 0,26.862666 -32.71733,0 -65.43599,0 -98.15333,0 0,-8.953333 0,-17.909333 0,-26.862666 z m 0,192.450661 c 32.71734,0 65.436,0 98.15333,0 0,8.95333 0,17.90667 0,26.86 -32.71733,0 -65.43599,0 -98.15333,0 0,-8.95333 0,-17.90667 0,-26.86 z m 0,192.448 c 32.71734,0 65.436,0 98.15333,0 0,8.95333 0,17.91066 0,26.864 -32.71733,0 -65.43599,0 -98.15333,0 0,-8.95334 0,-17.91067 0,-26.864 z m 157.17333,-95.91867 c 32.71867,0 65.43467,0 98.15333,0 0,8.95333 0,17.908 0,26.86267 -32.71866,0 -65.43466,0 -98.15333,0 0,-8.95467 0,-17.90934 0,-26.86267 z m 365.55599,-32.37866 c 32.71867,0 65.43467,0 98.15334,0 0,8.95333 0,17.90666 0,26.86 -32.71867,0 -65.43467,0 -98.15334,0 0,-8.95334 0,-17.90667 0,-26.86 z m -156.46399,96.52799 c 32.71866,0 65.43733,0 98.15333,0 0,8.956 0,17.91067 0,26.86267 -32.716,0 -65.43467,0 -98.15333,0 0,-8.952 0,-17.90667 0,-26.86267 z m 51.91733,-288.97999 c 32.71867,0 65.43467,0 98.15333,0 0,8.95467 0,17.908 0,26.864 -32.71866,0 -65.43466,0 -98.15333,0 0,-8.956 0,-17.90933 0,-26.864 v 0"
     inkscape:connector-curvature="0" /><path
     id="path102"
     style="fill:#77481f;fill-opacity:1;fill-rule:evenodd;stroke:none;stroke-width:0.13333333"
     d="m 628.45998,102.88135 c 32.71867,0 65.43467,0 98.15334,0 0,8.95467 0,17.908 0,26.864 -32.71867,0 -65.43467,0 -98.15334,0 0,-8.956 0,-17.90933 0,-26.864"
     inkscape:connector-curvature="0" /><path
     id="path104"
     style="fill:#77481f;fill-opacity:1;fill-rule:evenodd;stroke:none;stroke-width:0.13333333"
     d="m 262.90399,135.26135 c 32.71867,0 65.43467,0 98.15333,0 0,8.95467 0,17.90933 0,26.86267 -32.71866,0 -65.43466,0 -98.15333,0 0,-8.95334 0,-17.908 0,-26.86267"
     inkscape:connector-curvature="0" /><path
     id="path106"
     style="fill:#77481f;fill-opacity:1;fill-rule:evenodd;stroke:none;stroke-width:0.13333333"
     d="m 367.44932,135.26135 c 32.72,0 65.43467,0 98.15467,0 0,8.95467 0,17.90933 0,26.86267 -32.72,0 -65.43467,0 -98.15467,0 0,-8.95334 0,-17.908 0,-26.86267"
     inkscape:connector-curvature="0" /><path
     id="path108"
     style="fill:#77481f;fill-opacity:1;fill-rule:evenodd;stroke:none;stroke-width:0.13333333"
     d="m 471.99599,135.26135 c 32.71866,0 65.43733,0 98.15333,0 0,8.95467 0,17.90933 0,26.86267 -32.716,0 -65.43467,0 -98.15333,0 0,-8.95334 0,-17.908 0,-26.86267"
     inkscape:connector-curvature="0" /><path
     id="path110"
     style="fill:#77481f;fill-opacity:1;fill-rule:evenodd;stroke:none;stroke-width:0.13333333"
     d="m 576.54265,135.26135 c 32.71867,0 65.43467,0 98.15333,0 0,8.95467 0,17.90933 0,26.86267 -32.71866,0 -65.43466,0 -98.15333,0 0,-8.95334 0,-17.908 0,-26.86267"
     inkscape:connector-curvature="0" /><path
     id="path112"
     style="fill:#ba8248;fill-opacity:1;fill-rule:evenodd;stroke:none;stroke-width:0.13333333"
     d="m 800.00131,487.78001 v 26.86533 H 733.00665 V 487.78001 Z M 628.45998,38.732019 c 32.71867,0 65.43467,0 98.15334,0 0,8.953333 0,17.909333 0,26.862666 -32.71867,0 -65.43467,0 -98.15334,0 0,-8.953333 0,-17.909333 0,-26.862666 z M 367.44932,6.9600198 c 32.72,0 65.43467,0 98.15467,0 0,8.9560002 0,17.9093332 0,26.8639992 -32.72,0 -65.43467,0 -98.15467,0 0,-8.954666 0,-17.907999 0,-26.8639992 z M 53.813999,135.26135 c 32.716666,0 65.436001,0 98.154001,0 0,8.95467 0,17.90933 0,26.86267 -32.718,0 -65.437335,0 -98.154001,0 0,-8.95334 0,-17.908 0,-26.86267 z M 1.1859373,359.48134 c 32.7176617,0 65.4348607,0 98.1525937,0 0,8.95467 0,17.90934 0,26.86267 -32.717733,0 -65.434932,0 -98.1525937,0 0,-8.95333 0,-17.908 0,-26.86267 z m 627.2740427,0 c 32.71867,0 65.43467,0 98.15334,0 0,8.95467 0,17.90934 0,26.86267 -32.71867,0 -65.43467,0 -98.15334,0 0,-8.95333 0,-17.908 0,-26.86267 z M 367.44932,263.56135 c 32.72,0 65.43467,0 98.15467,0 0,8.95466 0,17.90933 0,26.864 -32.72,0 -65.43467,0 -98.15467,0 0,-8.95467 0,-17.90934 0,-26.864 z M 262.90399,199.41068 c 32.71867,0 65.43467,0 98.15333,0 0,8.95467 0,17.90933 0,26.864 -32.71866,0 -65.43466,0 -98.15333,0 0,-8.95467 0,-17.90933 0,-26.864 z m 313.63866,256.6 c 32.71867,0 65.43467,0 98.15333,0 0,8.95466 0,17.90799 0,26.86399 -32.71866,0 -65.43466,0 -98.15333,0 0,-8.956 0,-17.90933 0,-26.86399 z m 104.544,-320.74933 c 32.71733,0 65.436,0 98.15733,0 0,8.95467 0,17.90933 0,26.86267 -32.72133,0 -65.44,0 -98.15733,0 0,-8.95334 0,-17.908 0,-26.86267 v 0"
     inkscape:connector-curvature="0" /><path
     id="path114"
     style="fill:#77481f;fill-opacity:1;fill-rule:evenodd;stroke:none;stroke-width:0.13333333"
     d="m 1.1859373,167.03202 c 32.7176617,0 65.4348607,0 98.1525937,0 0,8.95466 0,17.90933 0,26.864 -32.717733,0 -65.434932,0 -98.1525937,0 0,-8.95467 0,-17.90934 0,-26.864"
     inkscape:connector-curvature="0" /><path
     id="path116"
     style="fill:#77481f;fill-opacity:1;fill-rule:evenodd;stroke:none;stroke-width:0.13333333"
     d="m 105.73066,167.03202 c 32.71734,0 65.436,0 98.15333,0 0,8.95466 0,17.90933 0,26.864 -32.71733,0 -65.43599,0 -98.15333,0 0,-8.95467 0,-17.90934 0,-26.864"
     inkscape:connector-curvature="0" /><path
     id="path118"
     style="fill:#77481f;fill-opacity:1;fill-rule:evenodd;stroke:none;stroke-width:0.13333333"
     d="m 210.27866,167.03202 c 32.71867,0 65.43467,0 98.15067,0 0,8.95466 0,17.90933 0,26.864 -32.716,0 -65.432,0 -98.15067,0 0,-8.95467 0,-17.90934 0,-26.864"
     inkscape:connector-curvature="0" /><path
     id="path120"
     style="fill:#77481f;fill-opacity:1;fill-rule:evenodd;stroke:none;stroke-width:0.13333333"
     d="m 314.82133,167.03202 c 32.71866,0 65.43733,0 98.15333,0 0,8.95466 0,17.90933 0,26.864 -32.716,0 -65.43467,0 -98.15333,0 0,-8.95467 0,-17.90934 0,-26.864"
     inkscape:connector-curvature="0" /><path
     id="path122"
     style="fill:#77481f;fill-opacity:1;fill-rule:evenodd;stroke:none;stroke-width:0.13333333"
     d="m 523.91332,167.03202 c 32.71867,0 65.43467,0 98.15333,0 0,8.95466 0,17.90933 0,26.864 -32.71866,0 -65.43466,0 -98.15333,0 0,-8.95467 0,-17.90934 0,-26.864"
     inkscape:connector-curvature="0" /><path
     id="path124"
     style="fill:#77481f;fill-opacity:1;fill-rule:evenodd;stroke:none;stroke-width:0.13333333"
     d="m 628.45998,167.03202 c 32.71867,0 65.43467,0 98.15334,0 0,8.95466 0,17.90933 0,26.864 -32.71867,0 -65.43467,0 -98.15334,0 0,-8.95467 0,-17.90934 0,-26.864"
     inkscape:connector-curvature="0" /><path
     id="path126"
     style="fill:#77481f;fill-opacity:1;fill-rule:evenodd;stroke:none;stroke-width:0.13333333"
     d="m 158.35866,199.41068 c 32.71867,0 65.43333,0 98.15333,0 0,8.95467 0,17.90933 0,26.864 -32.72,0 -65.43466,0 -98.15333,0 0,-8.95467 0,-17.90933 0,-26.864"
     inkscape:connector-curvature="0" /><path
     id="path128"
     style="fill:#77481f;fill-opacity:1;fill-rule:evenodd;stroke:none;stroke-width:0.13333333"
     d="m 367.44932,199.41068 c 32.72,0 65.43467,0 98.15467,0 0,8.95467 0,17.90933 0,26.864 -32.72,0 -65.43467,0 -98.15467,0 0,-8.95467 0,-17.90933 0,-26.864"
     inkscape:connector-curvature="0" /><path
     id="path130"
     style="fill:#77481f;fill-opacity:1;fill-rule:evenodd;stroke:none;stroke-width:0.13333333"
     d="m 471.99599,199.41068 c 32.71866,0 65.43733,0 98.15333,0 0,8.95467 0,17.90933 0,26.864 -32.716,0 -65.43467,0 -98.15333,0 0,-8.95467 0,-17.90933 0,-26.864"
     inkscape:connector-curvature="0" /><path
     id="path132"
     style="fill:#77481f;fill-opacity:1;fill-rule:evenodd;stroke:none;stroke-width:0.13333333"
     d="m 576.54265,199.41068 c 32.71867,0 65.43467,0 98.15333,0 0,8.95467 0,17.90933 0,26.864 -32.71866,0 -65.43466,0 -98.15333,0 0,-8.95467 0,-17.90933 0,-26.864"
     inkscape:connector-curvature="0" /><path
     id="path134"
     style="fill:#77481f;fill-opacity:1;fill-rule:evenodd;stroke:none;stroke-width:0.13333333"
     d="m 681.08665,199.41068 c 32.71733,0 65.436,0 98.15733,0 0,8.95467 0,17.90933 0,26.864 -32.72133,0 -65.44,0 -98.15733,0 0,-8.95467 0,-17.90933 0,-26.864"
     inkscape:connector-curvature="0" /><path
     id="path136"
     style="fill:#77481f;fill-opacity:1;fill-rule:evenodd;stroke:none;stroke-width:0.13333333"
     d="m 1.1859373,231.18268 c 32.7176617,0 65.4348607,0 98.1525937,0 0,8.95333 0,17.90667 0,26.86 -32.717733,0 -65.434932,0 -98.1525937,0 0,-8.95333 0,-17.90667 0,-26.86"
     inkscape:connector-curvature="0" /><path
     id="path138"
     style="fill:#77481f;fill-opacity:1;fill-rule:evenodd;stroke:none;stroke-width:0.13333333"
     d="m 210.27866,231.18268 c 32.71867,0 65.43467,0 98.15067,0 0,8.95333 0,17.90667 0,26.86 -32.716,0 -65.432,0 -98.15067,0 0,-8.95333 0,-17.90667 0,-26.86"
     inkscape:connector-curvature="0" /><path
     id="path140"
     style="fill:#77481f;fill-opacity:1;fill-rule:evenodd;stroke:none;stroke-width:0.13333333"
     d="m 314.82133,231.18268 c 32.71866,0 65.43733,0 98.15333,0 0,8.95333 0,17.90667 0,26.86 -32.716,0 -65.43467,0 -98.15333,0 0,-8.95333 0,-17.90667 0,-26.86"
     inkscape:connector-curvature="0" /><path
     id="path142"
     style="fill:#77481f;fill-opacity:1;fill-rule:evenodd;stroke:none;stroke-width:0.13333333"
     d="m 419.36666,231.18268 c 32.72,0 65.43866,0 98.15466,0 0,8.95333 0,17.90667 0,26.86 -32.716,0 -65.43466,0 -98.15466,0 0,-8.95333 0,-17.90667 0,-26.86"
     inkscape:connector-curvature="0" /><path
     id="path144"
     style="fill:#77481f;fill-opacity:1;fill-rule:evenodd;stroke:none;stroke-width:0.13333333"
     d="m 523.91332,231.18268 c 32.71867,0 65.43467,0 98.15333,0 0,8.95333 0,17.90667 0,26.86 -32.71866,0 -65.43466,0 -98.15333,0 0,-8.95333 0,-17.90667 0,-26.86"
     inkscape:connector-curvature="0" /><path
     id="path146"
     style="fill:#77481f;fill-opacity:1;fill-rule:evenodd;stroke:none;stroke-width:0.13333333"
     d="m 628.45998,231.18268 c 32.71867,0 65.43467,0 98.15334,0 0,8.95333 0,17.90667 0,26.86 -32.71867,0 -65.43467,0 -98.15334,0 0,-8.95333 0,-17.90667 0,-26.86"
     inkscape:connector-curvature="0" /><path
     id="path148"
     style="fill:#77481f;fill-opacity:1;fill-rule:evenodd;stroke:none;stroke-width:0.13333333"
     d="m 53.813999,199.41068 c 32.716666,0 65.436001,0 98.154001,0 0,8.95467 0,17.90933 0,26.864 -32.718,0 -65.437335,0 -98.154001,0 0,-8.95467 0,-17.90933 0,-26.864"
     inkscape:connector-curvature="0" /><path
     id="path150"
     style="fill:#77481f;fill-opacity:1;fill-rule:evenodd;stroke:none;stroke-width:0.13333333"
     d="m 158.35866,263.56135 c 32.71867,0 65.43333,0 98.15333,0 0,8.95466 0,17.90933 0,26.864 -32.72,0 -65.43466,0 -98.15333,0 0,-8.95467 0,-17.90934 0,-26.864"
     inkscape:connector-curvature="0" /><path
     id="path152"
     style="fill:#77481f;fill-opacity:1;fill-rule:evenodd;stroke:none;stroke-width:0.13333333"
     d="m 262.90399,263.56135 c 32.71867,0 65.43467,0 98.15333,0 0,8.95466 0,17.90933 0,26.864 -32.71866,0 -65.43466,0 -98.15333,0 0,-8.95467 0,-17.90934 0,-26.864"
     inkscape:connector-curvature="0" /><path
     id="path154"
     style="fill:#77481f;fill-opacity:1;fill-rule:evenodd;stroke:none;stroke-width:0.13333333"
     d="m 471.99599,263.56135 c 32.71866,0 65.43733,0 98.15333,0 0,8.95466 0,17.90933 0,26.864 -32.716,0 -65.43467,0 -98.15333,0 0,-8.95467 0,-17.90934 0,-26.864"
     inkscape:connector-curvature="0" /><path
     id="path156"
     style="fill:#77481f;fill-opacity:1;fill-rule:evenodd;stroke:none;stroke-width:0.13333333"
     d="m 681.08665,263.56135 c 32.71733,0 65.436,0 98.15733,0 0,8.95466 0,17.90933 0,26.864 -32.72133,0 -65.44,0 -98.15733,0 0,-8.95467 0,-17.90934 0,-26.864"
     inkscape:connector-curvature="0" /><path
     id="path158"
     style="fill:#77481f;fill-opacity:1;fill-rule:evenodd;stroke:none;stroke-width:0.13333333"
     d="m 105.73066,295.33335 c 32.71734,0 65.436,0 98.15333,0 0,8.95333 0,17.90666 0,26.86 -32.71733,0 -65.43599,0 -98.15333,0 0,-8.95334 0,-17.90667 0,-26.86"
     inkscape:connector-curvature="0" /><path
     id="path160"
     style="fill:#77481f;fill-opacity:1;fill-rule:evenodd;stroke:none;stroke-width:0.13333333"
     d="m 314.82133,295.33335 c 32.71866,0 65.43733,0 98.15333,0 0,8.95333 0,17.90666 0,26.86 -32.716,0 -65.43467,0 -98.15333,0 0,-8.95334 0,-17.90667 0,-26.86"
     inkscape:connector-curvature="0" /><path
     id="path162"
     style="fill:#77481f;fill-opacity:1;fill-rule:evenodd;stroke:none;stroke-width:0.13333333"
     d="m 419.36666,295.33335 c 32.72,0 65.43866,0 98.15466,0 0,8.95333 0,17.90666 0,26.86 -32.716,0 -65.43466,0 -98.15466,0 0,-8.95334 0,-17.90667 0,-26.86"
     inkscape:connector-curvature="0" /><path
     id="path164"
     style="fill:#77481f;fill-opacity:1;fill-rule:evenodd;stroke:none;stroke-width:0.13333333"
     d="m 523.91332,295.33335 c 32.71867,0 65.43467,0 98.15333,0 0,8.95333 0,17.90666 0,26.86 -32.71866,0 -65.43466,0 -98.15333,0 0,-8.95334 0,-17.90667 0,-26.86"
     inkscape:connector-curvature="0" /><path
     id="path166"
     style="fill:#77481f;fill-opacity:1;fill-rule:evenodd;stroke:none;stroke-width:0.13333333"
     d="m 53.813999,263.56135 c 32.716666,0 65.436001,0 98.154001,0 0,8.95466 0,17.90933 0,26.864 -32.718,0 -65.437335,0 -98.154001,0 0,-8.95467 0,-17.90934 0,-26.864"
     inkscape:connector-curvature="0" /><path
     id="path168"
     style="fill:#77481f;fill-opacity:1;fill-rule:evenodd;stroke:none;stroke-width:0.13333333"
     d="m 158.35866,327.71201 c 32.71867,0 65.43333,0 98.15333,0 0,8.95333 0,17.908 0,26.86267 -32.72,0 -65.43466,0 -98.15333,0 0,-8.95467 0,-17.90934 0,-26.86267"
     inkscape:connector-curvature="0" /><path
     id="path170"
     style="fill:#77481f;fill-opacity:1;fill-rule:evenodd;stroke:none;stroke-width:0.13333333"
     d="m 367.44932,327.71201 c 32.72,0 65.43467,0 98.15467,0 0,8.95333 0,17.908 0,26.86267 -32.72,0 -65.43467,0 -98.15467,0 0,-8.95467 0,-17.90934 0,-26.86267"
     inkscape:connector-curvature="0" /><path
     id="path172"
     style="fill:#77481f;fill-opacity:1;fill-rule:evenodd;stroke:none;stroke-width:0.13333333"
     d="m 471.99599,327.71201 c 32.71866,0 65.43733,0 98.15333,0 0,8.95333 0,17.908 0,26.86267 -32.716,0 -65.43467,0 -98.15333,0 0,-8.95467 0,-17.90934 0,-26.86267"
     inkscape:connector-curvature="0" /><path
     id="path174"
     style="fill:#77481f;fill-opacity:1;fill-rule:evenodd;stroke:none;stroke-width:0.13333333"
     d="m 576.54265,327.71201 c 32.71867,0 65.43467,0 98.15333,0 0,8.95333 0,17.908 0,26.86267 -32.71866,0 -65.43466,0 -98.15333,0 0,-8.95467 0,-17.90934 0,-26.86267"
     inkscape:connector-curvature="0" /><path
     id="path176"
     style="fill:#77481f;fill-opacity:1;fill-rule:evenodd;stroke:none;stroke-width:0.13333333"
     d="m 681.08665,327.71201 c 32.71733,0 65.436,0 98.15733,0 0,8.95333 0,17.908 0,26.86267 -32.72133,0 -65.44,0 -98.15733,0 0,-8.95467 0,-17.90934 0,-26.86267"
     inkscape:connector-curvature="0" /><path
     id="path178"
     style="fill:#77481f;fill-opacity:1;fill-rule:evenodd;stroke:none;stroke-width:0.13333333"
     d="m 105.73066,359.48134 c 32.71734,0 65.436,0 98.15333,0 0,8.95467 0,17.90934 0,26.86267 -32.71733,0 -65.43599,0 -98.15333,0 0,-8.95333 0,-17.908 0,-26.86267"
     inkscape:connector-curvature="0" /><path
     id="path180"
     style="fill:#77481f;fill-opacity:1;fill-rule:evenodd;stroke:none;stroke-width:0.13333333"
     d="m 210.27866,359.48134 c 32.71867,0 65.43467,0 98.15067,0 0,8.95467 0,17.90934 0,26.86267 -32.716,0 -65.432,0 -98.15067,0 0,-8.95333 0,-17.908 0,-26.86267"
     inkscape:connector-curvature="0" /><path
     id="path182"
     style="fill:#77481f;fill-opacity:1;fill-rule:evenodd;stroke:none;stroke-width:0.13333333"
     d="m 314.82133,359.48134 c 32.71866,0 65.43733,0 98.15333,0 0,8.95467 0,17.90934 0,26.86267 -32.716,0 -65.43467,0 -98.15333,0 0,-8.95333 0,-17.908 0,-26.86267"
     inkscape:connector-curvature="0" /><path
     id="path184"
     style="fill:#77481f;fill-opacity:1;fill-rule:evenodd;stroke:none;stroke-width:0.13333333"
     d="m 419.36666,359.48134 c 32.72,0 65.43866,0 98.15466,0 0,8.95467 0,17.90934 0,26.86267 -32.716,0 -65.43466,0 -98.15466,0 0,-8.95333 0,-17.908 0,-26.86267"
     inkscape:connector-curvature="0" /><path
     id="path186"
     style="fill:#77481f;fill-opacity:1;fill-rule:evenodd;stroke:none;stroke-width:0.13333333"
     d="m 523.91332,359.48134 c 32.71867,0 65.43467,0 98.15333,0 0,8.95467 0,17.90934 0,26.86267 -32.71866,0 -65.43466,0 -98.15333,0 0,-8.95333 0,-17.908 0,-26.86267"
     inkscape:connector-curvature="0" /><path
     id="path188"
     style="fill:#77481f;fill-opacity:1;fill-rule:evenodd;stroke:none;stroke-width:0.13333333"
     d="m 53.813999,327.71201 c 32.716666,0 65.436001,0 98.154001,0 0,8.95333 0,17.908 0,26.86267 -32.718,0 -65.437335,0 -98.154001,0 0,-8.95467 0,-17.90934 0,-26.86267"
     inkscape:connector-curvature="0" /><path
     id="path190"
     style="fill:#77481f;fill-opacity:1;fill-rule:evenodd;stroke:none;stroke-width:0.13333333"
     d="m 158.35866,391.86134 c 32.71867,0 65.43333,0 98.15333,0 0,8.956 0,17.91067 0,26.86267 -32.72,0 -65.43466,0 -98.15333,0 0,-8.952 0,-17.90667 0,-26.86267"
     inkscape:connector-curvature="0" /><path
     id="path192"
     style="fill:#77481f;fill-opacity:1;fill-rule:evenodd;stroke:none;stroke-width:0.13333333"
     d="m 262.90399,391.86134 c 32.71867,0 65.43467,0 98.15333,0 0,8.956 0,17.91067 0,26.86267 -32.71866,0 -65.43466,0 -98.15333,0 0,-8.952 0,-17.90667 0,-26.86267"
     inkscape:connector-curvature="0" /><path
     id="path194"
     style="fill:#77481f;fill-opacity:1;fill-rule:evenodd;stroke:none;stroke-width:0.13333333"
     d="m 576.54265,391.86134 c 32.71867,0 65.43467,0 98.15333,0 0,8.956 0,17.91067 0,26.86267 -32.71866,0 -65.43466,0 -98.15333,0 0,-8.952 0,-17.90667 0,-26.86267"
     inkscape:connector-curvature="0" /><path
     id="path196"
     style="fill:#77481f;fill-opacity:1;fill-rule:evenodd;stroke:none;stroke-width:0.13333333"
     d="m 1.1859373,423.63068 c 32.7176617,0 65.4348607,0 98.1525937,0 0,8.95333 0,17.91066 0,26.864 -32.717733,0 -65.434932,0 -98.1525937,0 0,-8.95334 0,-17.91067 0,-26.864"
     inkscape:connector-curvature="0" /><path
     id="path198"
     style="fill:#77481f;fill-opacity:1;fill-rule:evenodd;stroke:none;stroke-width:0.13333333"
     d="m 210.27866,423.63068 c 32.71867,0 65.43467,0 98.15067,0 0,8.95333 0,17.91066 0,26.864 -32.716,0 -65.432,0 -98.15067,0 0,-8.95334 0,-17.91067 0,-26.864"
     inkscape:connector-curvature="0" /><path
     id="path200"
     style="fill:#77481f;fill-opacity:1;fill-rule:evenodd;stroke:none;stroke-width:0.13333333"
     d="m 314.82133,423.63068 c 32.71866,0 65.43733,0 98.15333,0 0,8.95333 0,17.91066 0,26.864 -32.716,0 -65.43467,0 -98.15333,0 0,-8.95334 0,-17.91067 0,-26.864"
     inkscape:connector-curvature="0" /><path
     id="path202"
     style="fill:#77481f;fill-opacity:1;fill-rule:evenodd;stroke:none;stroke-width:0.13333333"
     d="m 419.36666,423.63068 c 32.72,0 65.43866,0 98.15466,0 0,8.95333 0,17.91066 0,26.864 -32.716,0 -65.43466,0 -98.15466,0 0,-8.95334 0,-17.91067 0,-26.864"
     inkscape:connector-curvature="0" /><path
     id="path204"
     style="fill:#77481f;fill-opacity:1;fill-rule:evenodd;stroke:none;stroke-width:0.13333333"
     d="m 523.91332,423.63068 c 32.71867,0 65.43467,0 98.15333,0 0,8.95333 0,17.91066 0,26.864 -32.71866,0 -65.43466,0 -98.15333,0 0,-8.95334 0,-17.91067 0,-26.864"
     inkscape:connector-curvature="0" /><path
     id="path206"
     style="fill:#77481f;fill-opacity:1;fill-rule:evenodd;stroke:none;stroke-width:0.13333333"
     d="m 628.45998,423.63068 c 32.71867,0 65.43467,0 98.15334,0 0,8.95333 0,17.91066 0,26.864 -32.71867,0 -65.43467,0 -98.15334,0 0,-8.95334 0,-17.91067 0,-26.864"
     inkscape:connector-curvature="0" /><path
     id="path208"
     style="fill:#77481f;fill-opacity:1;fill-rule:evenodd;stroke:none;stroke-width:0.13333333"
     d="m 53.813999,391.86134 c 32.716666,0 65.436001,0 98.154001,0 0,8.956 0,17.91067 0,26.86267 -32.718,0 -65.437335,0 -98.154001,0 0,-8.952 0,-17.90667 0,-26.86267"
     inkscape:connector-curvature="0" /><path
     id="path210"
     style="fill:#77481f;fill-opacity:1;fill-rule:evenodd;stroke:none;stroke-width:0.13333333"
     d="m 158.35866,456.01068 c 32.71867,0 65.43333,0 98.15333,0 0,8.95466 0,17.90799 0,26.86399 -32.72,0 -65.43466,0 -98.15333,0 0,-8.956 0,-17.90933 0,-26.86399"
     inkscape:connector-curvature="0" /><path
     id="path212"
     style="fill:#77481f;fill-opacity:1;fill-rule:evenodd;stroke:none;stroke-width:0.13333333"
     d="m 262.90399,456.01068 c 32.71867,0 65.43467,0 98.15333,0 0,8.95466 0,17.90799 0,26.86399 -32.71866,0 -65.43466,0 -98.15333,0 0,-8.956 0,-17.90933 0,-26.86399"
     inkscape:connector-curvature="0" /><path
     id="path214"
     style="fill:#77481f;fill-opacity:1;fill-rule:evenodd;stroke:none;stroke-width:0.13333333"
     d="m 367.44932,456.01068 c 32.72,0 65.43467,0 98.15467,0 0,8.95466 0,17.90799 0,26.86399 -32.72,0 -65.43467,0 -98.15467,0 0,-8.956 0,-17.90933 0,-26.86399"
     inkscape:connector-curvature="0" /><path
     id="path216"
     style="fill:#77481f;fill-opacity:1;fill-rule:evenodd;stroke:none;stroke-width:0.13333333"
     d="m 471.99599,456.01068 c 32.71866,0 65.43733,0 98.15333,0 0,8.95466 0,17.90799 0,26.86399 -32.716,0 -65.43467,0 -98.15333,0 0,-8.956 0,-17.90933 0,-26.86399"
     inkscape:connector-curvature="0" /><path
     id="path218"
     style="fill:#77481f;fill-opacity:1;fill-rule:evenodd;stroke:none;stroke-width:0.13333333"
     d="m 681.08665,456.01068 c 32.71733,0 65.436,0 98.15733,0 0,8.95466 0,17.90799 0,26.86399 -32.72133,0 -65.44,0 -98.15733,0 0,-8.956 0,-17.90933 0,-26.86399"
     inkscape:connector-curvature="0" /><path
     id="path220"
     style="fill:#77481f;fill-opacity:1;fill-rule:evenodd;stroke:none;stroke-width:0.13333333"
     d="m 1.1859373,487.78001 c 32.7176617,0 65.4348607,0 98.1525937,0 0,8.95866 0,17.912 0,26.86533 -32.717733,0 -65.434932,0 -98.1525937,0 0,-8.95333 0,-17.90667 0,-26.86533"
     inkscape:connector-curvature="0" /><path
     id="path222"
     style="fill:#77481f;fill-opacity:1;fill-rule:evenodd;stroke:none;stroke-width:0.13333333"
     d="m 105.73066,487.78001 c 32.71734,0 65.436,0 98.15333,0 0,8.95866 0,17.912 0,26.86533 -32.71733,0 -65.43599,0 -98.15333,0 0,-8.95333 0,-17.90667 0,-26.86533"
     inkscape:connector-curvature="0" /><path
     id="path224"
     style="fill:#77481f;fill-opacity:1;fill-rule:evenodd;stroke:none;stroke-width:0.13333333"
     d="m 314.82133,487.78001 c 32.71866,0 65.43733,0 98.15333,0 0,8.95866 0,17.912 0,26.86533 -32.716,0 -65.43467,0 -98.15333,0 0,-8.95333 0,-17.90667 0,-26.86533"
     inkscape:connector-curvature="0" /><path
     id="path226"
     style="fill:#77481f;fill-opacity:1;fill-rule:evenodd;stroke:none;stroke-width:0.13333333"
     d="m 523.91332,487.78001 c 32.71867,0 65.43467,0 98.15333,0 0,8.95866 0,17.912 0,26.86533 -32.71866,0 -65.43466,0 -98.15333,0 0,-8.95333 0,-17.90667 0,-26.86533"
     inkscape:connector-curvature="0" /><path
     id="path228"
     style="fill:#77481f;fill-opacity:1;fill-rule:evenodd;stroke:none;stroke-width:0.13333333"
     d="m 628.45998,487.78001 c 32.71867,0 65.43467,0 98.15334,0 0,8.95866 0,17.912 0,26.86533 -32.71867,0 -65.43467,0 -98.15334,0 0,-8.95333 0,-17.90667 0,-26.86533"
     inkscape:connector-curvature="0" /><path
     id="path230"
     style="fill:#77481f;fill-opacity:1;fill-rule:evenodd;stroke:none;stroke-width:0.13333333"
     d="m 53.813999,456.01068 c 32.716666,0 65.436001,0 98.154001,0 0,8.95466 0,17.90799 0,26.86399 -32.718,0 -65.437335,0 -98.154001,0 0,-8.956 0,-17.90933 0,-26.86399"
     inkscape:connector-curvature="0" /><path
     id="path232"
     style="fill:#77481f;fill-opacity:1;fill-rule:evenodd;stroke:none;stroke-width:0.13333333"
     d="m 158.35866,6.9600198 c 32.71867,0 65.43333,0 98.15333,0 0,8.9560002 0,17.9093332 0,26.8639992 -32.72,0 -65.43466,0 -98.15333,0 0,-8.954666 0,-17.907999 0,-26.8639992"
     inkscape:connector-curvature="0" /><path
     id="path234"
     style="fill:#77481f;fill-opacity:1;fill-rule:evenodd;stroke:none;stroke-width:0.13333333"
     d="m 471.99599,6.9600198 c 32.71866,0 65.43733,0 98.15333,0 0,8.9560002 0,17.9093332 0,26.8639992 -32.716,0 -65.43467,0 -98.15333,0 0,-8.954666 0,-17.907999 0,-26.8639992"
     inkscape:connector-curvature="0" /><path
     id="path236"
     style="fill:#77481f;fill-opacity:1;fill-rule:evenodd;stroke:none;stroke-width:0.13333333"
     d="m 576.54265,6.9600198 c 32.71867,0 65.43467,0 98.15333,0 0,8.9560002 0,17.9093332 0,26.8639992 -32.71866,0 -65.43466,0 -98.15333,0 0,-8.954666 0,-17.907999 0,-26.8639992"
     inkscape:connector-curvature="0" /><path
     id="path238"
     style="fill:#77481f;fill-opacity:1;fill-rule:evenodd;stroke:none;stroke-width:0.13333333"
     d="m 681.08665,6.9600198 c 32.71733,0 65.436,0 98.15733,0 0,8.9560002 0,17.9093332 0,26.8639992 -32.72133,0 -65.44,0 -98.15733,0 0,-8.954666 0,-17.907999 0,-26.8639992"
     inkscape:connector-curvature="0" /><path
     id="path240"
     style="fill:#77481f;fill-opacity:1;fill-rule:evenodd;stroke:none;stroke-width:0.13333333"
     d="m 1.1859373,38.732019 c 32.7176617,0 65.4348607,0 98.1525937,0 0,8.953333 0,17.909333 0,26.862666 -32.717733,0 -65.434932,0 -98.1525937,0 0,-8.953333 0,-17.909333 0,-26.862666"
     inkscape:connector-curvature="0" /><path
     id="path242"
     style="fill:#77481f;fill-opacity:1;fill-rule:evenodd;stroke:none;stroke-width:0.13333333"
     d="m 210.27866,38.732019 c 32.71867,0 65.43467,0 98.15067,0 0,8.953333 0,17.909333 0,26.862666 -32.716,0 -65.432,0 -98.15067,0 0,-8.953333 0,-17.909333 0,-26.862666"
     inkscape:connector-curvature="0" /><path
     id="path244"
     style="fill:#77481f;fill-opacity:1;fill-rule:evenodd;stroke:none;stroke-width:0.13333333"
     d="m 314.82133,38.732019 c 32.71866,0 65.43733,0 98.15333,0 0,8.953333 0,17.909333 0,26.862666 -32.716,0 -65.43467,0 -98.15333,0 0,-8.953333 0,-17.909333 0,-26.862666"
     inkscape:connector-curvature="0" /><path
     id="path246"
     style="fill:#77481f;fill-opacity:1;fill-rule:evenodd;stroke:none;stroke-width:0.13333333"
     d="m 419.36666,38.732019 c 32.72,0 65.43866,0 98.15466,0 0,8.953333 0,17.909333 0,26.862666 -32.716,0 -65.43466,0 -98.15466,0 0,-8.953333 0,-17.909333 0,-26.862666"
     inkscape:connector-curvature="0" /><path
     id="path248"
     style="fill:#77481f;fill-opacity:1;fill-rule:evenodd;stroke:none;stroke-width:0.13333333"
     d="m 53.813999,6.9600198 c 32.716666,0 65.436001,0 98.154001,0 0,8.9560002 0,17.9093332 0,26.8639992 -32.718,0 -65.437335,0 -98.154001,0 0,-8.954666 0,-17.907999 0,-26.8639992"
     inkscape:connector-curvature="0" /><path
     id="path250"
     style="fill:#77481f;fill-opacity:1;fill-rule:evenodd;stroke:none;stroke-width:0.13333333"
     d="M 0.00208333,33.824019 V 6.9600198 H 47.421332 V 33.824019 H 0.00208333"
     inkscape:connector-curvature="0" /><path
     id="path252"
     style="fill:#77481f;fill-opacity:1;fill-rule:evenodd;stroke:none;stroke-width:0.13333333"
     d="M 0.00208333,97.973351 V 71.112018 H 47.421332 c 0,8.952 0,17.908 0,26.861333 H 0.00208333"
     inkscape:connector-curvature="0" /><path
     id="path254"
     style="fill:#77481f;fill-opacity:1;fill-rule:evenodd;stroke:none;stroke-width:0.13333333"
     d="M 0.00208333,162.12402 V 135.26135 H 47.421332 c 0,8.95467 0,17.90933 0,26.86267 H 0.00208333"
     inkscape:connector-curvature="0" /><path
     id="path256"
     style="fill:#77481f;fill-opacity:1;fill-rule:evenodd;stroke:none;stroke-width:0.13333333"
     d="m 0.00208333,226.27468 v -26.864 H 47.421332 c 0,8.95467 0,17.90933 0,26.864 H 0.00208333"
     inkscape:connector-curvature="0" /><path
     id="path258"
     style="fill:#77481f;fill-opacity:1;fill-rule:evenodd;stroke:none;stroke-width:0.13333333"
     d="m 0.00208333,290.42535 v -26.864 H 47.421332 c 0,8.95466 0,17.90933 0,26.864 H 0.00208333"
     inkscape:connector-curvature="0" /><path
     id="path260"
     style="fill:#77481f;fill-opacity:1;fill-rule:evenodd;stroke:none;stroke-width:0.13333333"
     d="M 0.00208333,354.57468 V 327.71201 H 47.421332 c 0,8.95333 0,17.908 0,26.86267 H 0.00208333"
     inkscape:connector-curvature="0" /><path
     id="path262"
     style="fill:#77481f;fill-opacity:1;fill-rule:evenodd;stroke:none;stroke-width:0.13333333"
     d="M 0.00208333,418.72401 V 391.86134 H 47.421332 c 0,8.956 0,17.91067 0,26.86267 H 0.00208333"
     inkscape:connector-curvature="0" /><path
     id="path264"
     style="fill:#77481f;fill-opacity:1;fill-rule:evenodd;stroke:none;stroke-width:0.13333333"
     d="M 0.00208333,482.87467 V 456.01068 H 47.421332 v 26.86399 H 0.00208333"
     inkscape:connector-curvature="0" /><path
     id="path266"
     style="fill:#77481f;fill-opacity:1;fill-rule:evenodd;stroke:none;stroke-width:0.13333333"
     d="m 800.00131,456.01068 v 26.86399 h -14.36666 v -26.86399 h 14.36666"
     inkscape:connector-curvature="0" /><path
     id="path268"
     style="fill:#77481f;fill-opacity:1;fill-rule:evenodd;stroke:none;stroke-width:0.13333333"
     d="m 800.00131,423.63068 v 26.864 h -66.99466 c 0,-8.95334 0,-17.91067 0,-26.864 h 66.99466"
     inkscape:connector-curvature="0" /><path
     id="path270"
     style="fill:#77481f;fill-opacity:1;fill-rule:evenodd;stroke:none;stroke-width:0.13333333"
     d="m 800.00131,391.86134 v 26.86267 h -14.36666 c 0,-8.952 0,-17.90667 0,-26.86267 h 14.36666"
     inkscape:connector-curvature="0" /><path
     id="path272"
     style="fill:#77481f;fill-opacity:1;fill-rule:evenodd;stroke:none;stroke-width:0.13333333"
     d="m 800.00131,359.48134 v 26.86267 h -66.99466 c 0,-8.95333 0,-17.908 0,-26.86267 h 66.99466"
     inkscape:connector-curvature="0" /><path
     id="path274"
     style="fill:#77481f;fill-opacity:1;fill-rule:evenodd;stroke:none;stroke-width:0.13333333"
     d="m 800.00131,327.71201 v 26.86267 h -14.36666 c 0,-8.95467 0,-17.90934 0,-26.86267 h 14.36666"
     inkscape:connector-curvature="0" /><path
     id="path276"
     style="fill:#77481f;fill-opacity:1;fill-rule:evenodd;stroke:none;stroke-width:0.13333333"
     d="m 800.00131,295.33335 v 26.86 h -66.99466 c 0,-8.95334 0,-17.90667 0,-26.86 h 66.99466"
     inkscape:connector-curvature="0" /><path
     id="path278"
     style="fill:#77481f;fill-opacity:1;fill-rule:evenodd;stroke:none;stroke-width:0.13333333"
     d="m 800.00131,263.56135 v 26.864 h -14.36666 c 0,-8.95467 0,-17.90934 0,-26.864 h 14.36666"
     inkscape:connector-curvature="0" /><path
     id="path280"
     style="fill:#77481f;fill-opacity:1;fill-rule:evenodd;stroke:none;stroke-width:0.13333333"
     d="m 800.00131,231.18268 v 26.86 h -66.99466 c 0,-8.95333 0,-17.90667 0,-26.86 h 66.99466"
     inkscape:connector-curvature="0" /><path
     id="path282"
     style="fill:#77481f;fill-opacity:1;fill-rule:evenodd;stroke:none;stroke-width:0.13333333"
     d="m 800.00131,199.41068 v 26.864 h -14.36666 c 0,-8.95467 0,-17.90933 0,-26.864 h 14.36666"
     inkscape:connector-curvature="0" /><path
     id="path284"
     style="fill:#77481f;fill-opacity:1;fill-rule:evenodd;stroke:none;stroke-width:0.13333333"
     d="m 800.00131,167.03202 v 26.864 h -66.99466 c 0,-8.95467 0,-17.90934 0,-26.864 h 66.99466"
     inkscape:connector-curvature="0" /><path
     id="path286"
     style="fill:#77481f;fill-opacity:1;fill-rule:evenodd;stroke:none;stroke-width:0.13333333"
     d="m 800.00131,135.26135 v 26.86267 h -14.36666 c 0,-8.95334 0,-17.908 0,-26.86267 h 14.36666"
     inkscape:connector-curvature="0" /><path
     id="path288"
     style="fill:#77481f;fill-opacity:1;fill-rule:evenodd;stroke:none;stroke-width:0.13333333"
     d="m 800.00131,102.88135 v 26.864 h -66.99466 c 0,-8.956 0,-17.90933 0,-26.864 h 66.99466"
     inkscape:connector-curvature="0" /><path
     id="path290"
     style="fill:#77481f;fill-opacity:1;fill-rule:evenodd;stroke:none;stroke-width:0.13333333"
     d="m 800.00131,71.112018 v 26.861333 h -14.36666 c 0,-8.953333 0,-17.909333 0,-26.861333 h 14.36666"
     inkscape:connector-curvature="0" /><path
     id="path292"
     style="fill:#77481f;fill-opacity:1;fill-rule:evenodd;stroke:none;stroke-width:0.13333333"
     d="M 800.00131,38.732019 V 65.594685 H 733.00665 V 38.732019 h 66.99466"
     inkscape:connector-curvature="0" /><path
     id="path294"
     style="fill:#77481f;fill-opacity:1;fill-rule:evenodd;stroke:none;stroke-width:0.13333333"
     d="M 800.00131,6.9600198 V 33.824019 H 785.63465 V 6.9600198 h 14.36666"
     inkscape:connector-curvature="0" /><path
     id="path296"
     style="fill:#77481f;fill-opacity:1;fill-rule:evenodd;stroke:none;stroke-width:0.13333333"
     d="m 53.813999,71.112018 c 32.716666,0 65.436001,0 98.154001,0 0,8.952 0,17.908 0,26.861333 -32.718,0 -65.437335,0 -98.154001,0 0,-8.953333 0,-17.909333 0,-26.861333"
     inkscape:connector-curvature="0" /></svg>