<?xml version="1.0" encoding="UTF-8" standalone="no"?>
<svg
   xmlns:dc="http://purl.org/dc/elements/1.1/"
   xmlns:cc="http://creativecommons.org/ns#"
   xmlns:rdf="http://www.w3.org/1999/02/22-rdf-syntax-ns#"
   xmlns:svg="http://www.w3.org/2000/svg"
   xmlns="http://www.w3.org/2000/svg"
   xmlns:sodipodi="http://sodipodi.sourceforge.net/DTD/sodipodi-0.dtd"
   xmlns:inkscape="http://www.inkscape.org/namespaces/inkscape"
   id="svg2"
   viewBox="0 0 424.95123 403.18015"
   version="1.1"
   sodipodi:docname="cute-fuzzies.svg"
   width="424.95123"
   height="403.18015"
   inkscape:version="0.92.4 (unknown)">
  <defs
     id="defs44" />
  <sodipodi:namedview
     pagecolor="#ffffff"
     bordercolor="#666666"
     borderopacity="1"
     objecttolerance="10"
     gridtolerance="10"
     guidetolerance="10"
     inkscape:pageopacity="0"
     inkscape:pageshadow="2"
     inkscape:window-width="1855"
     inkscape:window-height="1056"
     id="namedview42"
     showgrid="false"
     fit-margin-top="0"
     fit-margin-left="0"
     fit-margin-right="0"
     fit-margin-bottom="0"
     inkscape:zoom="1.1064731"
     inkscape:cx="232.1073"
     inkscape:cy="379.98598"
     inkscape:window-x="65"
     inkscape:window-y="24"
     inkscape:window-maximized="1"
     inkscape:current-layer="svg2" />
  <g
     transform="translate(243.0973,-383.31373)"
     id="g4761">
    <g
       id="g4715">
      <path
         style="fill:#97e239;fill-rule:evenodd;stroke:#000000;stroke-width:4.09919977;stroke-linecap:round;stroke-linejoin:round"
         inkscape:connector-curvature="0"
         d="m -68.996,385.37 c -0.19653,0.01 -0.39945,0.004 -0.59735,0.0346 -7.1709,1.078 -8.2566,13.107 -10.085,23.971 -7.447,-9.2299 -14.85,-18.556 -21.188,-16.547 -6.653,2.1088 -6.1127,13.339 -6.114,24.005 -7.3049,-6.759 -14.561,-13.854 -20.626,-10.962 -5.4188,2.5834 -6.0927,12.491 -6.4302,22.93 -7.8569,-5.244 -15.569,-10.302 -20.802,-6.6952 -6.4446,4.4414 -2.923,19.945 -1.4758,33.129 -10.989,-3.9027 -23.315,-10.429 -28.743,-4.9607 -5.0022,5.0401 2.5849,15.195 8.4682,24.803 -11.157,-2.2042 -23.519,-6.1547 -27.829,-0.13876 -4.0175,5.607 4.4957,14.132 11.736,22.479 -14.247,-0.13694 -30.735,-1.7204 -33.697,4.9607 -2.8843,6.5044 9.8877,13.51 20.345,20.571 -13.695,1.9452 -29.039,3.1377 -30.816,9.9213 -1.6732,6.3864 10.076,11.083 20.942,15.992 -11.703,3.0201 -23.729,5.9434 -24.28,12.35 -0.5396,6.2659 8.0584,12.075 16.62,17.9 -9.4335,4.1696 -17.883,8.4816 -17.464,14.015 0.54586,7.197 12.859,11.925 23.402,17.033 -7.1124,5.4839 -14.941,10.759 -13.458,17.31 1.4349,6.3377 11.082,8.1303 20.521,10.164 -6.2094,6.6352 -13.381,13.163 -10.822,19.496 2.7527,6.8149 14.914,6.2429 25.616,7.0421 -5.0034,10.34 -11.955,21.524 -7.906,27.717 3.1008,4.7435 11.826,3.7144 21.153,2.1508 -2.8716,9.0668 -5.4692,17.916 -1.4055,22.375 4.4428,4.875 15.107,0.91873 25.58,-2.6364 -3.9273,7.9058 -8.0037,15.736 -2.8462,19.773 5.0794,3.9762 15.539,-0.0698 26.002,-4.1628 -2.7101,8.9191 -6.197,18.137 -0.10536,21.508 6.4746,3.5825 18.18,-4.3076 29.164,-10.615 -1.1757,12.303 -5.1205,27.308 2.5651,29.695 7.3215,2.2733 15.648,-9.4241 23.859,-18.628 0.5336,11.843 -0.28854,25.392 7.1681,26.468 7.7525,1.1188 14.201,-12.314 20.977,-22.791 6.7459,12.636 12.998,29.299 21.083,29.417 7.1386,0.10468 9.5509,-11.446 12.509,-21.82 6.8449,9.5759 13.645,18.907 19.923,18.004 7.1721,-1.0318 7.5946,-13.137 8.8899,-23.971 7.3825,6.4189 14.778,13.175 21.258,11.17 5.7189,-1.7693 7.4237,-10.352 8.8548,-19.461 7.4133,4.5944 14.676,8.7102 20.099,6.036 5.9956,-2.9565 5.6689,-13.516 5.5869,-23.867 11.788,8.2422 25.188,20.823 31.624,16.2 6.7164,-4.8236 -2.4534,-20.668 -6.8168,-33.406 12.418,6.3013 26.237,15.133 31.519,9.8866 5.2052,-5.1705 -3.3642,-16.977 -9.8035,-27.891 11.355,0.91124 23.277,2.3714 27.197,-3.1221 4.1171,-5.7701 -2.8828,-14.11 -8.6088,-22.236 10.63,-0.79232 21.25,-1.5854 24.034,-7.2155 2.5212,-5.0988 -2.3287,-10.703 -7.9412,-16.408 10.345,-0.96165 20.715,-1.8703 22.383,-7.944 1.8657,-6.7941 -9.2735,-13.846 -18.869,-20.918 11.287,-3.0645 24.496,-5.3394 25.264,-12.523 0.71444,-6.6805 -10.324,-11.721 -20.556,-16.929 11.54,-5.4888 24.403,-10.738 23.718,-17.449 -0.67265,-6.5918 -12.93,-10.021 -24.315,-13.737 10.263,-7.0154 21.346,-14.037 19.642,-20.363 -1.6623,-6.17 -13.462,-7.7137 -24.913,-9.505 7.8675,-6.367 15.551,-12.672 12.825,-18.212 -2.9261,-5.948 -15.663,-6.0414 -27.759,-6.5564 7.6504,-8.8575 17.589,-18.112 13.352,-24.075 -4.0946,-5.7633 -18.098,-3.2475 -30.781,-1.8733 5.5409,-9.4784 11.889,-19.215 7.3087,-24.283 -4.0285,-4.457 -14.729,-2.5597 -25.826,-0.24282 3.8133,-9.7929 7.8767,-19.668 2.7759,-23.763 -6.0951,-4.8927 -21.525,2.6163 -34.927,7.389 1.3809,-10.7 4.0965,-22.496 -2.3191,-26.087 -6.0362,-3.3788 -14.351,5.1095 -22.629,12.731 -0.49206,-11.099 0.66469,-24.066 -6.5356,-26.711 -6.5405,-2.4028 -13.428,7.406 -20.415,16.27 -1.0015,-8.9564 -2.073,-17.631 -8.3277,-18.629 -5.9816,-0.95438 -12.682,6.1322 -19.431,13.807 -2.5725,-9.178 -4.9431,-18.485 -11.631,-18.49 -8.0446,-0.006 -15.049,14.181 -22.313,25.081 -7.431,-11.631 -14.414,-28.352 -22.559,-27.96 z"
         id="path2985" />
      <path
         style="opacity:0.76955004;fill:#ff3464;fill-rule:evenodd"
         inkscape:connector-curvature="0"
         transform="matrix(0.44877,0,0,0.49531,89.411,529.01)"
         d="m -510.09,61.447 c 7.7925,-21.827 36.982,-34.634 65.197,-28.605 28.215,6.0282 44.77,28.609 36.978,50.435 -7.7925,21.827 -36.982,34.634 -65.197,28.605 -23.175,-4.9515 -39.139,-21.35 -38.887,-39.949"
         id="path4508" />
      <path
         style="opacity:0.76955004;fill:#ff3464;fill-rule:evenodd"
         inkscape:connector-curvature="0"
         transform="matrix(0.44877,0,0,0.49531,266.22,526.04)"
         d="m -510.09,61.447 c 7.7925,-21.827 36.982,-34.634 65.197,-28.605 28.215,6.0282 44.77,28.609 36.978,50.435 -7.7925,21.827 -36.982,34.634 -65.197,28.605 -23.175,-4.9515 -39.139,-21.35 -38.887,-39.949"
         id="path4508-9" />
      <path
         style="fill:#ff3464;stroke:#000000;stroke-width:5.65759993;stroke-linecap:round;stroke-linejoin:round"
         inkscape:connector-curvature="0"
         d="m -55.541,583.67 c 1.2219,58.467 52.724,67.49 53.852,0"
         id="path4528" />
      <path
         style="fill:none;stroke:#000000;stroke-width:7;stroke-linecap:round;stroke-linejoin:round"
         inkscape:connector-curvature="0"
         d="m -99.159,542.24 c 0.82404,-21.956 35.557,-25.344 36.318,0"
         id="path4528-0" />
      <path
         style="fill:none;stroke:#000000;stroke-width:7;stroke-linecap:round;stroke-linejoin:round"
         inkscape:connector-curvature="0"
         d="m 1.8409,541.24 c 0.82404,-21.956 35.557,-25.344 36.318,0"
         id="path4528-0-4" />
    </g>
  </g>
  <metadata
     id="metadata39">
    <rdf:RDF>
      <cc:Work>
        <dc:format>image/svg+xml</dc:format>
        <dc:type
           rdf:resource="http://purl.org/dc/dcmitype/StillImage" />
        <cc:license
           rdf:resource="http://creativecommons.org/publicdomain/zero/1.0/" />
        <dc:publisher>
          <cc:Agent
             rdf:about="http://openclipart.org/">
            <dc:title>Openclipart</dc:title>
          </cc:Agent>
        </dc:publisher>
        <dc:title>Cute fuzzies</dc:title>
        <dc:date>2013-08-29T20:19:54</dc:date>
        <dc:description>Simple, cute, colourful, smiling fuzzy creatures.</dc:description>
        <dc:source>https://openclipart.org/detail/182716/cute-fuzzies-by-anarres-182716</dc:source>
        <dc:creator>
          <cc:Agent>
            <dc:title>anarres</dc:title>
          </cc:Agent>
        </dc:creator>
        <dc:subject>
          <rdf:Bag>
            <rdf:li>cartoon</rdf:li>
            <rdf:li>happy</rdf:li>
            <rdf:li>kawaii</rdf:li>
            <rdf:li>smile</rdf:li>
          </rdf:Bag>
        </dc:subject>
      </cc:Work>
      <cc:License
         rdf:about="http://creativecommons.org/publicdomain/zero/1.0/">
        <cc:permits
           rdf:resource="http://creativecommons.org/ns#Reproduction" />
        <cc:permits
           rdf:resource="http://creativecommons.org/ns#Distribution" />
        <cc:permits
           rdf:resource="http://creativecommons.org/ns#DerivativeWorks" />
      </cc:License>
    </rdf:RDF>
  </metadata>
</svg>
